<?xml version="1.0" encoding="UTF-8" standalone="no"?>
<!DOCTYPE svg PUBLIC "-//W3C//DTD SVG 1.1//EN"
 "http://www.w3.org/Graphics/SVG/1.1/DTD/svg11.dtd">
<!-- Generated by graphviz version 2.43.0 (0)
 -->
<!-- Title: butterfold Pages: 1 -->
<svg width="1658pt" height="442pt"
 viewBox="0.00 0.00 1658.00 442.50" xmlns="http://www.w3.org/2000/svg" xmlns:xlink="http://www.w3.org/1999/xlink">
<g id="graph0" class="graph" transform="scale(1 1) rotate(0) translate(4 438.5)">
<title>butterfold</title>
<polygon fill="white" stroke="transparent" points="-4,4 -4,-438.5 1654,-438.5 1654,4 -4,4"/>
<text text-anchor="middle" x="825" y="-417.7" font-family="Helvetica,sans-Serif" font-size="16.00">ButterFold — modular DFT&#45;s&#45;OFDM chip (6 modules from butterfold_module_io.md)</text>
<g id="clust1" class="cluster">
<title>cluster_core</title>
<path fill="none" stroke="#548235" stroke-dasharray="5,2" d="M782,-102C782,-102 1371.5,-102 1371.5,-102 1377.5,-102 1383.5,-108 1383.5,-114 1383.5,-114 1383.5,-186 1383.5,-186 1383.5,-192 1377.5,-198 1371.5,-198 1371.5,-198 782,-198 782,-198 776,-198 770,-192 770,-186 770,-186 770,-114 770,-114 770,-108 776,-102 782,-102"/>
<text text-anchor="middle" x="1076.75" y="-181.2" font-family="Helvetica,sans-Serif" font-size="16.00">unified_mixed_radix_core</text>
</g>
<!-- din -->
<g id="node1" class="node">
<title>din</title>
<polygon fill="#fff2cc" stroke="black" points="173,-279 0,-279 0,-253 173,-253 185,-266 173,-279"/>
<text text-anchor="middle" x="92.5" y="-269.8" font-family="Helvetica,sans-Serif" font-size="14.00">din[7:0]</text>
<text text-anchor="middle" x="92.5" y="-254.8" font-family="Helvetica,sans-Serif" font-size="14.00">din_valid_i / din_ready_o</text>
</g>
<!-- sch -->
<g id="node4" class="node">
<title>sch</title>
<path fill="#dae3f3" stroke="black" d="M610,-300C610,-300 379,-300 379,-300 373,-300 367,-294 367,-288 367,-288 367,-244 367,-244 367,-238 373,-232 379,-232 379,-232 610,-232 610,-232 616,-232 622,-238 622,-244 622,-244 622,-288 622,-288 622,-294 616,-300 610,-300"/>
<text text-anchor="middle" x="494.5" y="-284.8" font-family="Helvetica,sans-Serif" font-size="14.00">scheduler_addr_control</text>
<text text-anchor="middle" x="494.5" y="-269.8" font-family="Helvetica,sans-Serif" font-size="14.00">(control brain: sequences DFT&#45;12 /</text>
<text text-anchor="middle" x="494.5" y="-254.8" font-family="Helvetica,sans-Serif" font-size="14.00">FFT&#45;128 / IFFT&#45;128, gen addrs,</text>
<text text-anchor="middle" x="494.5" y="-239.8" font-family="Helvetica,sans-Serif" font-size="14.00">map+CP+twiddle control)</text>
</g>
<!-- din&#45;&gt;sch -->
<g id="edge1" class="edge">
<title>din&#45;&gt;sch</title>
<path fill="none" stroke="black" d="M185.02,-266C235.82,-266 300,-266 356.66,-266"/>
<polygon fill="black" stroke="black" points="356.77,-269.5 366.77,-266 356.77,-262.5 356.77,-269.5"/>
<text text-anchor="middle" x="276" y="-269" font-family="Helvetica,sans-Serif" font-size="10.00">cmd byte (0x03 TX / 0x04 RX)</text>
</g>
<!-- fdiq -->
<g id="node8" class="node">
<title>fdiq</title>
<path fill="#eef4ff" stroke="black" d="M1397,-87.5C1397,-87.5 1157,-87.5 1157,-87.5 1151,-87.5 1145,-81.5 1145,-75.5 1145,-75.5 1145,-46.5 1145,-46.5 1145,-40.5 1151,-34.5 1157,-34.5 1157,-34.5 1397,-34.5 1397,-34.5 1403,-34.5 1409,-40.5 1409,-46.5 1409,-46.5 1409,-75.5 1409,-75.5 1409,-81.5 1403,-87.5 1397,-87.5"/>
<text text-anchor="middle" x="1277" y="-72.3" font-family="Helvetica,sans-Serif" font-size="14.00">fdiq_io_adapter</text>
<text text-anchor="middle" x="1277" y="-57.3" font-family="Helvetica,sans-Serif" font-size="14.00">(freq&#45;domain I/Q byte pack/unpack,</text>
<text text-anchor="middle" x="1277" y="-42.3" font-family="Helvetica,sans-Serif" font-size="14.00">12 QAM samples)</text>
</g>
<!-- din&#45;&gt;fdiq -->
<g id="edge2" class="edge">
<title>din&#45;&gt;fdiq</title>
<path fill="none" stroke="#2e75b6" d="M128.36,-246.93C223.4,-196.18 496.42,-58.5 743,-12 885.9,14.95 1053.26,-9.36 1161.78,-32.33"/>
<polygon fill="#2e75b6" stroke="#2e75b6" points="1161.26,-35.79 1171.77,-34.47 1162.73,-28.95 1161.26,-35.79"/>
<text text-anchor="middle" x="682.5" y="-38" font-family="Helvetica,sans-Serif" font-size="10.00">TX freq I/Q</text>
</g>
<!-- tdiq -->
<g id="node10" class="node">
<title>tdiq</title>
<path fill="#eef4ff" stroke="black" d="M998,-408.5C998,-408.5 755,-408.5 755,-408.5 749,-408.5 743,-402.5 743,-396.5 743,-396.5 743,-367.5 743,-367.5 743,-361.5 749,-355.5 755,-355.5 755,-355.5 998,-355.5 998,-355.5 1004,-355.5 1010,-361.5 1010,-367.5 1010,-367.5 1010,-396.5 1010,-396.5 1010,-402.5 1004,-408.5 998,-408.5"/>
<text text-anchor="middle" x="876.5" y="-393.3" font-family="Helvetica,sans-Serif" font-size="14.00">tdiq_io_adapter_cp</text>
<text text-anchor="middle" x="876.5" y="-378.3" font-family="Helvetica,sans-Serif" font-size="14.00">(time&#45;domain I/Q byte pack/unpack,</text>
<text text-anchor="middle" x="876.5" y="-363.3" font-family="Helvetica,sans-Serif" font-size="14.00">CP insert/remove 9|10)</text>
</g>
<!-- din&#45;&gt;tdiq -->
<g id="edge3" class="edge">
<title>din&#45;&gt;tdiq</title>
<path fill="none" stroke="#c55a11" d="M185.19,-281.95C293.61,-300.54 479.63,-331.56 640,-354 669.86,-358.18 701.9,-362.25 732.44,-365.95"/>
<polygon fill="#c55a11" stroke="#c55a11" points="732.38,-369.47 742.73,-367.19 733.22,-362.52 732.38,-369.47"/>
<text text-anchor="middle" x="494.5" y="-353" font-family="Helvetica,sans-Serif" font-size="10.00">RX time I/Q</text>
</g>
<!-- dout -->
<g id="node2" class="node">
<title>dout</title>
<polygon fill="#fff2cc" stroke="black" points="1638,-243 1446,-243 1446,-217 1638,-217 1650,-230 1638,-243"/>
<text text-anchor="middle" x="1548" y="-233.8" font-family="Helvetica,sans-Serif" font-size="14.00">dout[7:0]</text>
<text text-anchor="middle" x="1548" y="-218.8" font-family="Helvetica,sans-Serif" font-size="14.00">dout_valid_o / dout_ready_i</text>
</g>
<!-- irq -->
<g id="node3" class="node">
<title>irq</title>
<polygon fill="#fff2cc" stroke="black" points="910,-331 831,-331 831,-307 910,-307 922,-319 910,-331"/>
<text text-anchor="middle" x="876.5" y="-315.3" font-family="Helvetica,sans-Serif" font-size="14.00">done_irq_o</text>
</g>
<!-- sch&#45;&gt;irq -->
<g id="edge17" class="edge">
<title>sch&#45;&gt;irq</title>
<path fill="none" stroke="black" d="M622.03,-283.65C689.44,-293.05 768.88,-304.13 820.62,-311.34"/>
<polygon fill="black" stroke="black" points="820.2,-314.82 830.58,-312.73 821.16,-307.89 820.2,-314.82"/>
<text text-anchor="middle" x="682.5" y="-300" font-family="Helvetica,sans-Serif" font-size="10.00">done</text>
</g>
<!-- alu -->
<g id="node6" class="node">
<title>alu</title>
<path fill="#e2f0d9" stroke="black" d="M1363.5,-163.5C1363.5,-163.5 1190.5,-163.5 1190.5,-163.5 1184.5,-163.5 1178.5,-157.5 1178.5,-151.5 1178.5,-151.5 1178.5,-122.5 1178.5,-122.5 1178.5,-116.5 1184.5,-110.5 1190.5,-110.5 1190.5,-110.5 1363.5,-110.5 1363.5,-110.5 1369.5,-110.5 1375.5,-116.5 1375.5,-122.5 1375.5,-122.5 1375.5,-151.5 1375.5,-151.5 1375.5,-157.5 1369.5,-163.5 1363.5,-163.5"/>
<text text-anchor="middle" x="1277" y="-148.3" font-family="Helvetica,sans-Serif" font-size="14.00">shared complex multiplier</text>
<text text-anchor="middle" x="1277" y="-133.3" font-family="Helvetica,sans-Serif" font-size="14.00">+ radix&#45;2 butterfly</text>
<text text-anchor="middle" x="1277" y="-118.3" font-family="Helvetica,sans-Serif" font-size="14.00">+ scale / round / saturate</text>
</g>
<!-- sch&#45;&gt;alu -->
<g id="edge4" class="edge">
<title>sch&#45;&gt;alu</title>
<path fill="none" stroke="black" d="M579.7,-231.95C599.23,-225.1 620.13,-218.61 640,-214 801.17,-176.62 845.79,-193.21 1010,-173 1062.14,-166.58 1119.94,-158.84 1168.31,-152.17"/>
<polygon fill="black" stroke="black" points="1169.05,-155.61 1178.48,-150.77 1168.09,-148.67 1169.05,-155.61"/>
<text text-anchor="middle" x="876.5" y="-197" font-family="Helvetica,sans-Serif" font-size="10.00">uop / addrs</text>
</g>
<!-- tw -->
<g id="node7" class="node">
<title>tw</title>
<path fill="#e2f0d9" stroke="black" d="M949.5,-282.5C949.5,-282.5 803.5,-282.5 803.5,-282.5 797.5,-282.5 791.5,-276.5 791.5,-270.5 791.5,-270.5 791.5,-241.5 791.5,-241.5 791.5,-235.5 797.5,-229.5 803.5,-229.5 803.5,-229.5 949.5,-229.5 949.5,-229.5 955.5,-229.5 961.5,-235.5 961.5,-241.5 961.5,-241.5 961.5,-270.5 961.5,-270.5 961.5,-276.5 955.5,-282.5 949.5,-282.5"/>
<text text-anchor="middle" x="876.5" y="-267.3" font-family="Helvetica,sans-Serif" font-size="14.00">twiddle_source</text>
<text text-anchor="middle" x="876.5" y="-252.3" font-family="Helvetica,sans-Serif" font-size="14.00">(Q1.7 twiddle ROM,</text>
<text text-anchor="middle" x="876.5" y="-237.3" font-family="Helvetica,sans-Serif" font-size="14.00">conjugate for inverse)</text>
</g>
<!-- sch&#45;&gt;tw -->
<g id="edge5" class="edge">
<title>sch&#45;&gt;tw</title>
<path fill="none" stroke="black" d="M622.03,-262.67C674.04,-261.3 733.21,-259.74 781.29,-258.48"/>
<polygon fill="black" stroke="black" points="781.47,-261.97 791.38,-258.21 781.29,-254.98 781.47,-261.97"/>
<text text-anchor="middle" x="682.5" y="-265" font-family="Helvetica,sans-Serif" font-size="10.00">tw_req/addr</text>
</g>
<!-- map -->
<g id="node9" class="node">
<title>map</title>
<path fill="#eef4ff" stroke="black" d="M957,-74.5C957,-74.5 796,-74.5 796,-74.5 790,-74.5 784,-68.5 784,-62.5 784,-62.5 784,-33.5 784,-33.5 784,-27.5 790,-21.5 796,-21.5 796,-21.5 957,-21.5 957,-21.5 963,-21.5 969,-27.5 969,-33.5 969,-33.5 969,-62.5 969,-62.5 969,-68.5 963,-74.5 957,-74.5"/>
<text text-anchor="middle" x="876.5" y="-59.3" font-family="Helvetica,sans-Serif" font-size="14.00">subcarrier_map_extract</text>
<text text-anchor="middle" x="876.5" y="-44.3" font-family="Helvetica,sans-Serif" font-size="14.00">(centered map / extract,</text>
<text text-anchor="middle" x="876.5" y="-29.3" font-family="Helvetica,sans-Serif" font-size="14.00">bins 58..69 of 128)</text>
</g>
<!-- sch&#45;&gt;map -->
<g id="edge6" class="edge">
<title>sch&#45;&gt;map</title>
<path fill="none" stroke="black" d="M539.13,-231.7C587.09,-195.14 667.4,-137.22 743,-98 756.61,-90.94 771.44,-84.35 786.11,-78.43"/>
<polygon fill="black" stroke="black" points="787.69,-81.57 795.7,-74.63 785.11,-75.06 787.69,-81.57"/>
<text text-anchor="middle" x="682.5" y="-159" font-family="Helvetica,sans-Serif" font-size="10.00">map ctrl</text>
</g>
<!-- sch&#45;&gt;tdiq -->
<g id="edge7" class="edge">
<title>sch&#45;&gt;tdiq</title>
<path fill="none" stroke="black" d="M597.22,-300.07C641.8,-314.7 694.84,-331.68 743,-346 750.55,-348.24 758.37,-350.51 766.24,-352.75"/>
<polygon fill="black" stroke="black" points="765.3,-356.12 775.87,-355.48 767.2,-349.39 765.3,-356.12"/>
<text text-anchor="middle" x="682.5" y="-342" font-family="Helvetica,sans-Serif" font-size="10.00">CP ctrl</text>
</g>
<!-- mem -->
<g id="node5" class="node">
<title>mem</title>
<path fill="#e2f0d9" stroke="black" d="M963,-163.5C963,-163.5 790,-163.5 790,-163.5 784,-163.5 778,-157.5 778,-151.5 778,-151.5 778,-122.5 778,-122.5 778,-116.5 784,-110.5 790,-110.5 790,-110.5 963,-110.5 963,-110.5 969,-110.5 975,-116.5 975,-122.5 975,-122.5 975,-151.5 975,-151.5 975,-157.5 969,-163.5 963,-163.5"/>
<text text-anchor="middle" x="876.5" y="-148.3" font-family="Helvetica,sans-Serif" font-size="14.00">scratch memory</text>
<text text-anchor="middle" x="876.5" y="-133.3" font-family="Helvetica,sans-Serif" font-size="14.00">128 x 16b complex</text>
<text text-anchor="middle" x="876.5" y="-118.3" font-family="Helvetica,sans-Serif" font-size="14.00">(register file OR 4x SRAM)</text>
</g>
<!-- mem&#45;&gt;alu -->
<g id="edge11" class="edge">
<title>mem&#45;&gt;alu</title>
<path fill="none" stroke="#548235" d="M985.52,-137C1042.23,-137 1111.52,-137 1168.2,-137"/>
<polygon fill="#548235" stroke="#548235" points="985.24,-133.5 975.24,-137 985.24,-140.5 985.24,-133.5"/>
<polygon fill="#548235" stroke="#548235" points="1168.26,-140.5 1178.26,-137 1168.26,-133.5 1168.26,-140.5"/>
</g>
<!-- mem&#45;&gt;map -->
<g id="edge12" class="edge">
<title>mem&#45;&gt;map</title>
<path fill="none" stroke="black" d="M876.5,-110.31C876.5,-102.31 876.5,-93.38 876.5,-84.84"/>
<polygon fill="black" stroke="black" points="880,-84.7 876.5,-74.7 873,-84.7 880,-84.7"/>
<text text-anchor="middle" x="868" y="-90" font-family="Helvetica,sans-Serif" font-size="10.00">read</text>
</g>
<!-- mem&#45;&gt;tdiq -->
<g id="edge14" class="edge">
<title>mem&#45;&gt;tdiq</title>
<path fill="none" stroke="#2e75b6" d="M777.93,-148.46C737.19,-158.83 694.33,-178.45 672,-215.5 657.66,-239.29 610.39,-245.39 743,-346 744.86,-347.41 746.78,-348.77 748.74,-350.08"/>
<polygon fill="#2e75b6" stroke="#2e75b6" points="747.25,-353.26 757.61,-355.47 750.88,-347.28 747.25,-353.26"/>
<text text-anchor="middle" x="682.5" y="-218.5" font-family="Helvetica,sans-Serif" font-size="10.00">read &#45;&gt; dout (TX)</text>
</g>
<!-- tw&#45;&gt;alu -->
<g id="edge10" class="edge">
<title>tw&#45;&gt;alu</title>
<path fill="none" stroke="#548235" stroke-dasharray="1,5" d="M961.67,-248.41C1010.8,-242.37 1073.45,-231.85 1127,-214 1164.57,-201.47 1204.27,-180.52 1233.24,-163.64"/>
</g>
<!-- fdiq&#45;&gt;dout -->
<g id="edge15" class="edge">
<title>fdiq&#45;&gt;dout</title>
<path fill="none" stroke="black" d="M1387.62,-87.5C1395.03,-90.64 1402.23,-94.13 1409,-98 1456.89,-125.37 1500.81,-172.91 1525.7,-202.85"/>
<polygon fill="black" stroke="black" points="1523.16,-205.27 1532.21,-210.79 1528.58,-200.84 1523.16,-205.27"/>
</g>
<!-- fdiq&#45;&gt;mem -->
<g id="edge8" class="edge">
<title>fdiq&#45;&gt;mem</title>
<path fill="none" stroke="#2e75b6" d="M1144.7,-86.04C1093.01,-95.9 1034.39,-107.08 985.25,-116.45"/>
<polygon fill="#2e75b6" stroke="#2e75b6" points="984.41,-113.05 975.24,-118.36 985.72,-119.92 984.41,-113.05"/>
<text text-anchor="middle" x="1077.5" y="-111" font-family="Helvetica,sans-Serif" font-size="10.00">load</text>
</g>
<!-- map&#45;&gt;fdiq -->
<g id="edge13" class="edge">
<title>map&#45;&gt;fdiq</title>
<path fill="none" stroke="#c55a11" d="M969.17,-50.99C1018.18,-52.59 1079.58,-54.59 1134.56,-56.38"/>
<polygon fill="#c55a11" stroke="#c55a11" points="1134.64,-59.89 1144.74,-56.72 1134.86,-52.89 1134.64,-59.89"/>
<text text-anchor="middle" x="1077.5" y="-60" font-family="Helvetica,sans-Serif" font-size="10.00">extract &#45;&gt; dout (RX)</text>
</g>
<!-- tdiq&#45;&gt;dout -->
<g id="edge16" class="edge">
<title>tdiq&#45;&gt;dout</title>
<path fill="none" stroke="black" d="M994.5,-355.43C1124.84,-325.84 1332.98,-278.59 1453.12,-251.31"/>
<polygon fill="black" stroke="black" points="1454.06,-254.69 1463.04,-249.06 1452.51,-247.86 1454.06,-254.69"/>
</g>
<!-- tdiq&#45;&gt;mem -->
<g id="edge9" class="edge">
<title>tdiq&#45;&gt;mem</title>
<path fill="none" stroke="#c55a11" d="M756.34,-355.33C751.65,-352.52 747.18,-349.42 743,-346 629.06,-252.67 673.92,-275.12 691.5,-231.5 704.82,-198.47 735.39,-176.86 767.92,-162.77"/>
<polygon fill="#c55a11" stroke="#c55a11" points="769.66,-165.84 777.6,-158.82 767.02,-159.36 769.66,-165.84"/>
<text text-anchor="middle" x="682.5" y="-234.5" font-family="Helvetica,sans-Serif" font-size="10.00">load (RX)</text>
</g>
</g>
</svg>
